#!OML:ASF H:\Terrain\Patient Classification 1\Animal1\Tuesday\Animal1.ASF
:FULLY-SPECIFIED
:DEGREES
1030
root -5.89168 15.8246 -18.9862 -372.914 -75.1645 381.805
lowerback -2.98794 0.711378 -2.26452
upperback -5.33198 0.828284 -0.821968
thorax -3.84092 0.436987 0.419538
lowerneck -10.2198 0.301192 -3.05427
upperneck 20.0083 -2.01156 12.508
head 8.00593 -0.149786 4.48386
rclavicle -2.09966e-014 -1.03368e-014
rhumerus -41.496 6.16382 -86.2862
rradius 35.1815
rwrist -9.23535
rhand -15.2682 30.2526
rfingers 7.12502
rthumb 10.9061 0.555821
lclavicle -2.09966e-014 -1.03368e-014
lhumerus -42.9847 7.94705 77.0375
lradius 38.7387
lwrist -31.885
lhand 4.9491 39.778
lfingers 7.12502
lthumb 30.3214 67.3066
rfemur -25.4089 21.4876 24.8125
rtibia 30.081
rfoot -9.13713 -32.0288
rtoes 26.952
lfemur -30.3526 -0.488077 -21.2993
ltibia 65.5771
lfoot -0.488429 4.87047
ltoes 8.06634
1031
root -5.96148 15.8052 -18.9791 -373.614 -76.0996 382.702
lowerback -3.1551 0.727653 -2.17448
upperback -5.34502 0.854808 -0.721392
thorax -3.76083 0.447444 0.474855
lowerneck -10.364 0.412134 -3.10557
upperneck 20.0994 -1.87429 12.5736
head 8.05112 -0.0768817 4.53295
rclavicle -1.88845e-015 -1.86858e-014
rhumerus -41.0245 6.67404 -86.3794
rradius 35.7488
rwrist -9.7576
rhand -16.5974 30.9882
rfingers 7.12502
rthumb 9.62379 1.22803
lclavicle -1.88845e-015 -1.86858e-014
lhumerus -42.8596 8.06216 77.1383
lradius 38.6692
lwrist -31.4996
lhand 4.20933 40.1076
lfingers 7.12502
lthumb 29.6155 67.7638
rfemur -25.415 21.9851 25.0238
rtibia 30.2322
rfoot -11.5048 -31.489
rtoes 30.5331
lfemur -31.4175 -1.19804 -21.1994
ltibia 65.3192
lfoot -1.2716 5.63369
ltoes 8.57476
1032
root -6.02875 15.7916 -18.985 -375.718 -76.9246 384.94
lowerback -3.15276 0.729815 -2.62972
upperback -5.34977 0.862319 -0.594713
thorax -3.77879 0.470984 0.859746
lowerneck -10.5449 0.548635 -3.27721
upperneck 20.2958 -1.70435 12.7044
head 8.13529 0.0117885 4.63302
rclavicle 1.08835e-014 -9.14409e-015
rhumerus -40.5475 6.65256 -86.1169
rradius 36.2664
rwrist -9.59234
rhand -16.9789 31.2503
rfingers 7.12502
rthumb 9.25571 1.47342
lclavicle 1.08835e-014 -9.14409e-015
lhumerus -42.8054 8.41753 77.1927
lradius 38.6686
lwrist -31.2885
lhand 4.47967 40.35
lfingers 7.12502
lthumb 29.8735 67.96
rfemur -25.2321 22.5653 24.9793
rtibia 30.2477
rfoot -12.7997 -30.9967
rtoes 32.2577
lfemur -32.2784 -1.79335 -21.3185
ltibia 64.9538
lfoot -2.27254 6.25514
ltoes 16.8653
1033
root -6.09783 15.7746 -18.9882 -376.037 -77.8611 385.496
lowerback -3.37822 0.723961 -2.51929
upperback -5.36348 0.862819 -0.426203
thorax -3.6667 0.468592 0.974575
lowerneck -10.7639 0.710652 -3.38456
upperneck 20.4792 -1.51514 12.8599
head 8.22047 0.117305 4.73319
rclavicle -1.74185e-014 0
rhumerus -40.067 6.40565 -85.9708
rradius 36.8133
rwrist -9.36423
rhand -16.7579 30.77
rfingers 7.12502
rthumb 9.46894 1.00273
lclavicle -1.74185e-014 0
lhumerus -42.6386 8.45971 77.2544
lradius 38.6439
lwrist -30.7697
lhand 5.24321 40.0249
lfingers 7.12502
lthumb 30.6019 67.5014
rfemur -25.2741 23.2128 25.3167
rtibia 30.2905
rfoot -11.2655 -31.0821
rtoes 28.6726
lfemur -33.3376 -2.58789 -20.9077
ltibia 64.5489
lfoot -2.72218 6.97387
ltoes 17.3415
1034
root -6.17278 15.7658 -18.9826 -373.782 -78.9447 383.491
lowerback -3.65191 0.773555 -1.64792
upperback -5.43682 0.926411 -0.251398
thorax -3.57629 0.469064 0.670598
lowerneck -10.8168 0.793459 -3.18764
upperneck 20.4597 -1.43353 12.8267
head 8.2167 0.16754 4.69512
rclavicle -2.29348e-014 3.97569e-016
rhumerus -39.7486 6.16838 -86.021
rradius 37.4471
rwrist -9.41418
rhand -17.1629 30.3757
rfingers 7.12502
rthumb 9.07815 0.591076
lclavicle -2.29348e-014 3.97569e-016
lhumerus -42.6057 8.23935 77.3052
lradius 38.6539
lwrist -30.399
lhand 5.62079 40.0449
lfingers 7.12502
lthumb 30.9619 67.4536
rfemur -25.3063 23.7913 26.1678
rtibia 30.2857
rfoot -10.1866 -30.986
rtoes 25.9508
lfemur -34.4722 -3.59187 -19.8959
ltibia 63.9469
lfoot -2.92399 7.96105
ltoes 14.5506
1035
root -6.25239 15.7632 -18.9744 -375.175 -79.7916 385.095
lowerback -3.83727 0.842329 -1.54118
upperback -5.46283 1.01536 -0.287804
thorax -3.49854 0.506724 0.576338
lowerneck -10.8515 0.826366 -2.80878
upperneck 20.3561 -1.405 12.6071
head 8.18614 0.187762 4.5528
rclavicle -2.87989e-014 -5.1684e-015
rhumerus -39.4919 5.93148 -86.0379
rradius 38.0841
rwrist -9.61784
rhand -17.5205 30.7302
rfingers 7.12502
rthumb 8.73309 0.930822
lclavicle -2.87989e-014 -5.1684e-015
lhumerus -42.6969 8.10863 77.3814
lradius 38.7653
lwrist -30.322
lhand 5.72351 40.2154
lfingers 7.12502
lthumb 31.0598 67.6054
rfemur -25.1431 24.0506 26.3074
rtibia 30.2099
rfoot -8.52647 -30.6524
rtoes 21.4111
lfemur -35.3888 -4.57048 -19.6553
ltibia 63.0927
lfoot -4.2594 8.46555
ltoes 11.3154
1036
root -6.33249 15.7649 -18.9679 -380.127 -80.5995 390.028
lowerback -3.81387 0.933398 -1.95483
upperback -5.38414 1.14107 -0.393533
thorax -3.44014 0.582162 0.699934
lowerneck -10.898 0.88766 -2.65845
upperneck 20.3272 -1.33217 12.5323
head 8.17887 0.226693 4.50752
rclavicle 1.15295e-014 9.14409e-015
rhumerus -39.2576 5.87145 -86.0574
rradius 38.8471
rwrist -9.97967
rhand -17.5867 30.9062
rfingers 7.12502
rthumb 8.66918 1.10425
lclavicle 1.15295e-014 9.14409e-015
lhumerus -42.6986 7.9885 77.5101
lradius 38.8265
lwrist -30.07
lhand 5.50965 39.8481
lfingers 7.12502
lthumb 30.856 67.2769
rfemur -24.5931 24.1929 26.0942
rtibia 29.9855
rfoot -8.51615 -30.0879
rtoes 20.6412
lfemur -35.7318 -5.45012 -19.9626
ltibia 61.8731
lfoot -5.39854 8.69568
ltoes 9.62127
